<svg width="59" height="59" viewBox="0 0 59 59" fill="none" xmlns="http://www.w3.org/2000/svg">
<rect x="1.5" y="1.5" width="56" height="56" rx="28" stroke="#81081B" stroke-width="3"/>
<path d="M29.9425 37.36C29.5158 37.36 29.1558 37.2133 28.8625 36.92C28.5692 36.6 28.4225 36.2267 28.4225 35.8V29.52H22.1425C21.7158 29.52 21.3558 29.3733 21.0625 29.08C20.7692 28.76 20.6225 28.3867 20.6225 27.96C20.6225 27.5067 20.7692 27.1333 21.0625 26.84C21.3558 26.5467 21.7158 26.4 22.1425 26.4H28.4225V20.12C28.4225 19.6933 28.5692 19.3333 28.8625 19.04C29.1558 18.7467 29.5158 18.6 29.9425 18.6C30.3958 18.6 30.7692 18.7467 31.0625 19.04C31.3558 19.3333 31.5025 19.6933 31.5025 20.12V26.4H37.7825C38.2092 26.4 38.5692 26.56 38.8625 26.88C39.1825 27.1733 39.3425 27.5333 39.3425 27.96C39.3425 28.3867 39.1825 28.76 38.8625 29.08C38.5692 29.3733 38.2092 29.52 37.7825 29.52H31.5025V35.8C31.5025 36.2267 31.3558 36.6 31.0625 36.92C30.7692 37.2133 30.3958 37.36 29.9425 37.36Z" fill="#FD9FA2"/>
</svg>
