<svg width="46" height="28" viewBox="0 0 46 28" fill="none" xmlns="http://www.w3.org/2000/svg">
<path fill-rule="evenodd" clip-rule="evenodd" d="M44.9171 2.70898C45.2583 1.65148 44.9171 0.882734 43.4078 0.882734H38.389C37.123 0.882734 36.5384 1.55586 36.1973 2.27586C36.1973 2.27586 33.6155 8.42586 30.0102 12.413C28.8411 13.5662 28.3054 13.9505 27.6719 13.9505C27.3307 13.9505 26.8918 13.5662 26.8918 12.5096V2.6593C26.8918 1.41055 26.5027 0.833984 25.4304 0.833984H17.5375C16.7574 0.833984 16.2706 1.41055 16.2706 1.98711C16.2706 3.18805 18.0732 3.4768 18.2678 6.83961V14.1465C18.2678 15.7318 17.9803 16.0215 17.342 16.0215C15.6371 16.0215 11.4962 9.82367 9.01218 2.76148C8.52918 1.36273 8.03851 0.833984 6.77159 0.833984H1.70488C0.243417 0.833984 0 1.50617 0 2.22711C0 3.52461 1.70488 10.058 7.94076 18.7055C12.0817 24.6118 17.9764 27.7862 23.2866 27.7862C26.5027 27.7862 26.8918 27.0652 26.8918 25.8643V21.3962C26.8918 19.9552 27.1841 19.7152 28.2076 19.7152C28.9379 19.7152 30.2537 20.0987 33.2255 22.9337C36.6352 26.2965 37.2198 27.834 39.1202 27.834H44.138C45.5995 27.834 46.2818 27.113 45.8918 25.7199C45.4538 24.3268 43.7968 22.3093 41.6531 19.9074C40.4839 18.563 38.7301 17.0734 38.1944 16.3524C37.4642 15.3915 37.6587 15.0071 38.1944 14.1427C38.1455 14.1427 44.2846 5.59086 44.9171 2.70523" fill="#FD9FA2"/>
</svg>
